<svg id="visual" viewBox="0 0 960 540" width="960" height="540" xmlns="http://www.w3.org/2000/svg" xmlns:xlink="http://www.w3.org/1999/xlink" version="1.1"><rect width="960" height="540" fill="#001220"></rect><g><g transform="translate(120 328)"><path d="M0 -98.4L85.2 -49.2L85.2 49.2L0 98.4L-85.2 49.2L-85.2 -49.2Z" fill="none" stroke="#ffffff" stroke-width="2"></path></g><g transform="translate(344 389)"><path d="M0 -59L51.1 -29.5L51.1 29.5L0 59L-51.1 29.5L-51.1 -29.5Z" fill="none" stroke="#ffffff" stroke-width="2"></path></g><g transform="translate(539 274)"><path d="M0 -85L73.6 -42.5L73.6 42.5L0 85L-73.6 42.5L-73.6 -42.5Z" fill="none" stroke="#ffffff" stroke-width="2"></path></g><g transform="translate(822 351)"><path d="M0 -36L31.2 -18L31.2 18L0 36L-31.2 18L-31.2 -18Z" stroke="#ffffff" fill="none" stroke-width="2"></path></g><g transform="translate(677 109)"><path d="M0 -76L65.8 -38L65.8 38L0 76L-65.8 38L-65.8 -38Z" stroke="#ffffff" fill="none" stroke-width="2"></path></g><g transform="translate(200 105)"><path d="M0 -65L56.3 -32.5L56.3 32.5L0 65L-56.3 32.5L-56.3 -32.5Z" stroke="#ffffff" fill="none" stroke-width="2"></path></g></g></svg>