<svg id="visual" viewBox="0 0 960 300" width="960" height="300" xmlns="http://www.w3.org/2000/svg" xmlns:xlink="http://www.w3.org/1999/xlink" version="1.1"><path d="M0 54L22.8 58.8C45.7 63.7 91.3 73.3 137 81.5C182.7 89.7 228.3 96.3 274 89.7C319.7 83 365.3 63 411.2 52.2C457 41.3 503 39.7 548.8 46C594.7 52.3 640.3 66.7 686 68.5C731.7 70.3 777.3 59.7 823 52.3C868.7 45 914.3 41 937.2 39L960 37L960 0L937.2 0C914.3 0 868.7 0 823 0C777.3 0 731.7 0 686 0C640.3 0 594.7 0 548.8 0C503 0 457 0 411.2 0C365.3 0 319.7 0 274 0C228.3 0 182.7 0 137 0C91.3 0 45.7 0 22.8 0L0 0Z" fill="#0093ff" stroke-linecap="round" stroke-linejoin="miter"></path></svg>