<svg id="visual" viewBox="0 0 960 300" width="960" height="300" xmlns="http://www.w3.org/2000/svg" xmlns:xlink="http://www.w3.org/1999/xlink" version="1.1"><path d="M0 48L22.8 47.8C45.7 47.7 91.3 47.3 137 42.3C182.7 37.3 228.3 27.7 274 24.2C319.7 20.7 365.3 23.3 411.2 26.7C457 30 503 34 548.8 40C594.7 46 640.3 54 686 53.5C731.7 53 777.3 44 823 45.5C868.7 47 914.3 59 937.2 65L960 71L960 0L937.2 0C914.3 0 868.7 0 823 0C777.3 0 731.7 0 686 0C640.3 0 594.7 0 548.8 0C503 0 457 0 411.2 0C365.3 0 319.7 0 274 0C228.3 0 182.7 0 137 0C91.3 0 45.7 0 22.8 0L0 0Z" fill="#00ff95" stroke-linecap="round" stroke-linejoin="miter"></path></svg>