<svg id="visual" viewBox="0 0 960 300" width="960" height="300" xmlns="http://www.w3.org/2000/svg" xmlns:xlink="http://www.w3.org/1999/xlink" version="1.1"><path d="M0 237L17.8 235.7C35.7 234.3 71.3 231.7 106.8 229.5C142.3 227.3 177.7 225.7 213.2 224.5C248.7 223.3 284.3 222.7 320 222.7C355.7 222.7 391.3 223.3 426.8 225.2C462.3 227 497.7 230 533.2 230.3C568.7 230.7 604.3 228.3 640 222.8C675.7 217.3 711.3 208.7 746.8 209.8C782.3 211 817.7 222 853.2 226C888.7 230 924.3 227 942.2 225.5L960 224L960 301L942.2 301C924.3 301 888.7 301 853.2 301C817.7 301 782.3 301 746.8 301C711.3 301 675.7 301 640 301C604.3 301 568.7 301 533.2 301C497.7 301 462.3 301 426.8 301C391.3 301 355.7 301 320 301C284.3 301 248.7 301 213.2 301C177.7 301 142.3 301 106.8 301C71.3 301 35.7 301 17.8 301L0 301Z" fill="#008950"></path><path d="M0 227L17.8 228C35.7 229 71.3 231 106.8 233.3C142.3 235.7 177.7 238.3 213.2 236.2C248.7 234 284.3 227 320 225C355.7 223 391.3 226 426.8 230.3C462.3 234.7 497.7 240.3 533.2 239C568.7 237.7 604.3 229.3 640 229.3C675.7 229.3 711.3 237.7 746.8 240C782.3 242.3 817.7 238.7 853.2 237.8C888.7 237 924.3 239 942.2 240L960 241L960 301L942.2 301C924.3 301 888.7 301 853.2 301C817.7 301 782.3 301 746.8 301C711.3 301 675.7 301 640 301C604.3 301 568.7 301 533.2 301C497.7 301 462.3 301 426.8 301C391.3 301 355.7 301 320 301C284.3 301 248.7 301 213.2 301C177.7 301 142.3 301 106.8 301C71.3 301 35.7 301 17.8 301L0 301Z" fill="#00a561"></path><path d="M0 259L17.8 255.3C35.7 251.7 71.3 244.3 106.8 241.7C142.3 239 177.7 241 213.2 242.8C248.7 244.7 284.3 246.3 320 246.8C355.7 247.3 391.3 246.7 426.8 244.3C462.3 242 497.7 238 533.2 238C568.7 238 604.3 242 640 245.2C675.7 248.3 711.3 250.7 746.8 248.7C782.3 246.7 817.7 240.3 853.2 238C888.7 235.7 924.3 237.3 942.2 238.2L960 239L960 301L942.2 301C924.3 301 888.7 301 853.2 301C817.7 301 782.3 301 746.8 301C711.3 301 675.7 301 640 301C604.3 301 568.7 301 533.2 301C497.7 301 462.3 301 426.8 301C391.3 301 355.7 301 320 301C284.3 301 248.7 301 213.2 301C177.7 301 142.3 301 106.8 301C71.3 301 35.7 301 17.8 301L0 301Z" fill="#00c272"></path><path d="M0 252L17.8 255.5C35.7 259 71.3 266 106.8 269.8C142.3 273.7 177.7 274.3 213.2 271.8C248.7 269.3 284.3 263.7 320 262.5C355.7 261.3 391.3 264.7 426.8 265.3C462.3 266 497.7 264 533.2 264.7C568.7 265.3 604.3 268.7 640 269.7C675.7 270.7 711.3 269.3 746.8 269.3C782.3 269.3 817.7 270.7 853.2 269C888.7 267.3 924.3 262.7 942.2 260.3L960 258L960 301L942.2 301C924.3 301 888.7 301 853.2 301C817.7 301 782.3 301 746.8 301C711.3 301 675.7 301 640 301C604.3 301 568.7 301 533.2 301C497.7 301 462.3 301 426.8 301C391.3 301 355.7 301 320 301C284.3 301 248.7 301 213.2 301C177.7 301 142.3 301 106.8 301C71.3 301 35.7 301 17.8 301L0 301Z" fill="#00e083"></path><path d="M0 283L17.8 282.7C35.7 282.3 71.3 281.7 106.8 281.8C142.3 282 177.7 283 213.2 282.8C248.7 282.7 284.3 281.3 320 281C355.7 280.7 391.3 281.3 426.8 282C462.3 282.7 497.7 283.3 533.2 283.8C568.7 284.3 604.3 284.7 640 283.8C675.7 283 711.3 281 746.8 280.3C782.3 279.7 817.7 280.3 853.2 281.8C888.7 283.3 924.3 285.7 942.2 286.8L960 288L960 301L942.2 301C924.3 301 888.7 301 853.2 301C817.7 301 782.3 301 746.8 301C711.3 301 675.7 301 640 301C604.3 301 568.7 301 533.2 301C497.7 301 462.3 301 426.8 301C391.3 301 355.7 301 320 301C284.3 301 248.7 301 213.2 301C177.7 301 142.3 301 106.8 301C71.3 301 35.7 301 17.8 301L0 301Z" fill="#00ff95"></path></svg>