<svg id="visual" viewBox="0 0 960 300" width="960" height="300" xmlns="http://www.w3.org/2000/svg" xmlns:xlink="http://www.w3.org/1999/xlink" version="1.1"><path d="M0 217L17.8 211.8C35.7 206.7 71.3 196.3 106.8 193.8C142.3 191.3 177.7 196.7 213.2 196.2C248.7 195.7 284.3 189.3 320 188.3C355.7 187.3 391.3 191.7 426.8 198.2C462.3 204.7 497.7 213.3 533.2 215.5C568.7 217.7 604.3 213.3 640 211C675.7 208.7 711.3 208.3 746.8 206.7C782.3 205 817.7 202 853.2 203.7C888.7 205.3 924.3 211.7 942.2 214.8L960 218L960 301L942.2 301C924.3 301 888.7 301 853.2 301C817.7 301 782.3 301 746.8 301C711.3 301 675.7 301 640 301C604.3 301 568.7 301 533.2 301C497.7 301 462.3 301 426.8 301C391.3 301 355.7 301 320 301C284.3 301 248.7 301 213.2 301C177.7 301 142.3 301 106.8 301C71.3 301 35.7 301 17.8 301L0 301Z" fill="#00ff95"></path><path d="M0 215L17.8 214C35.7 213 71.3 211 106.8 212.8C142.3 214.7 177.7 220.3 213.2 224.5C248.7 228.7 284.3 231.3 320 228.8C355.7 226.3 391.3 218.7 426.8 212.7C462.3 206.7 497.7 202.3 533.2 200C568.7 197.7 604.3 197.3 640 202.5C675.7 207.7 711.3 218.3 746.8 224.2C782.3 230 817.7 231 853.2 228.7C888.7 226.3 924.3 220.7 942.2 217.8L960 215L960 301L942.2 301C924.3 301 888.7 301 853.2 301C817.7 301 782.3 301 746.8 301C711.3 301 675.7 301 640 301C604.3 301 568.7 301 533.2 301C497.7 301 462.3 301 426.8 301C391.3 301 355.7 301 320 301C284.3 301 248.7 301 213.2 301C177.7 301 142.3 301 106.8 301C71.3 301 35.7 301 17.8 301L0 301Z" fill="#00efe6"></path><path d="M0 218L17.8 219.3C35.7 220.7 71.3 223.3 106.8 226C142.3 228.7 177.7 231.3 213.2 232.5C248.7 233.7 284.3 233.3 320 236.7C355.7 240 391.3 247 426.8 250.2C462.3 253.3 497.7 252.7 533.2 251C568.7 249.3 604.3 246.7 640 242.5C675.7 238.3 711.3 232.7 746.8 229C782.3 225.3 817.7 223.7 853.2 224.5C888.7 225.3 924.3 228.7 942.2 230.3L960 232L960 301L942.2 301C924.3 301 888.7 301 853.2 301C817.7 301 782.3 301 746.8 301C711.3 301 675.7 301 640 301C604.3 301 568.7 301 533.2 301C497.7 301 462.3 301 426.8 301C391.3 301 355.7 301 320 301C284.3 301 248.7 301 213.2 301C177.7 301 142.3 301 106.8 301C71.3 301 35.7 301 17.8 301L0 301Z" fill="#00d5ff"></path><path d="M0 253L17.8 254.3C35.7 255.7 71.3 258.3 106.8 257.7C142.3 257 177.7 253 213.2 254C248.7 255 284.3 261 320 262C355.7 263 391.3 259 426.8 259.2C462.3 259.3 497.7 263.7 533.2 261.3C568.7 259 604.3 250 640 246C675.7 242 711.3 243 746.8 247C782.3 251 817.7 258 853.2 262.5C888.7 267 924.3 269 942.2 270L960 271L960 301L942.2 301C924.3 301 888.7 301 853.2 301C817.7 301 782.3 301 746.8 301C711.3 301 675.7 301 640 301C604.3 301 568.7 301 533.2 301C497.7 301 462.3 301 426.8 301C391.3 301 355.7 301 320 301C284.3 301 248.7 301 213.2 301C177.7 301 142.3 301 106.8 301C71.3 301 35.7 301 17.8 301L0 301Z" fill="#00b7ff"></path><path d="M0 281L17.8 280.5C35.7 280 71.3 279 106.8 278.3C142.3 277.7 177.7 277.3 213.2 277C248.7 276.7 284.3 276.3 320 277.2C355.7 278 391.3 280 426.8 281C462.3 282 497.7 282 533.2 282.3C568.7 282.7 604.3 283.3 640 282.7C675.7 282 711.3 280 746.8 276.5C782.3 273 817.7 268 853.2 269C888.7 270 924.3 277 942.2 280.5L960 284L960 301L942.2 301C924.3 301 888.7 301 853.2 301C817.7 301 782.3 301 746.8 301C711.3 301 675.7 301 640 301C604.3 301 568.7 301 533.2 301C497.7 301 462.3 301 426.8 301C391.3 301 355.7 301 320 301C284.3 301 248.7 301 213.2 301C177.7 301 142.3 301 106.8 301C71.3 301 35.7 301 17.8 301L0 301Z" fill="#0093ff"></path></svg>